<svg xmlns="http://www.w3.org/2000/svg" fill="none" viewBox="0 0 467 468"
     class="flex-shrink-0 w-[480px] max-lg:w-full">
  <path fill="#0033A0" d="M34.17 233.705c0 109.851 89.243 198.903 199.33 198.903 110.086
  0 199.329-89.052 199.329-198.903S343.586 34.803 233.5 34.803 34.17 123.854 34.17
  233.705m381.517 0c0 100.404-81.568 181.797-182.187 181.797S51.313 334.109
  51.313 233.705 132.88 51.908 233.5 51.908s182.187 81.394 182.187 181.797">

  </path>

  <path fill="#5bc2e7" d="M233.5 34.803a199.7 199.7 0 0 0-93.961 23.485 199.2 199.2 0
  0 0-71.772 64.908L82.02 132.7a182.05 182.05 0 0 1 65.6-59.326 182.5 182.5 0 0 1 85.88-21.466z">

  </path>

  <path fill="#0033A0" d="M0 233.705c0 128.682 104.542 233 233.5 233s233.5-104.318
  233.5-233-104.542-233-233.5-233S0 105.023 0 233.705m446.919 0c0 117.616-95.551 212.962-213.419
  212.962S20.081 351.321 20.081 233.705 115.632 20.743 233.5 20.743s213.419 95.346 213.419 212.962">

  </path>
  <path fill="#8892b0" d="M233.5.705a233.87 233.87 0 0 0-124.059 35.607l10.669 16.976A213.76
  213.76 0 0 1 233.5 20.743z">

  </path>

  <path fill="#0033A0" d="M68.342 233.705c0 91.019 73.944 164.805 165.158 164.805 91.215 0
  165.159-73.786 165.159-164.805S324.715 68.9 233.5 68.9 68.342 142.686 68.342
  233.705m313.305 0c0 81.644-66.327 147.83-148.147 147.83S85.353 315.349
  85.353 233.705 151.68 85.875 233.5 85.875c81.82 0 148.147 66.186 148.147 147.83">

  </path>

  <path fill="#ffc600" d="M233.5 68.9a165.5 165.5 0 0 0-65.136 13.358 165.2 165.2 0 0
  0-54.576 37.909 164.75 164.75 0 0 0-35.17 56.314 164.5 164.5 0 0 0-10.063
  65.591l16.989-.862a147.5 147.5 0 0 1 9.026-58.835 147.8 147.8 0 0 1 31.548-50.514
  148.2 148.2 0 0 1 48.955-34.004A148.4 148.4 0 0 1 233.5 85.875z">

  </path>

  <path fill="#0033A0" d="M102.512 233.705c0 72.187 58.645 130.707 130.988
   130.707s130.988-58.52 130.988-130.707c0-72.188-58.645-130.707-130.988-130.707s-130.988
   58.519-130.988 130.707m244.947 0c0 62.803-51.021 113.715-113.959
   113.715s-113.959-50.912-113.959-113.715S170.562 119.99 233.5 119.99s113.959 50.912 113.959 113.715">

  </path>

  <path fill="#64ffda" d="M233.5 102.998c-33.052 0-64.883 12.468-89.108 34.905a130.6 130.6 0 0
  0-41.516 86.072 130.5 130.5 0 0 0 28.249 91.269c20.619 25.777 50.242 42.823 82.928 47.72a131.2
  131.2 0 0 0 93.314-21.317c27.295-18.599 46.535-46.807 53.862-78.968a130.47 130.47 0 0
  0-14.357-94.443c-16.555-28.546-43.313-49.792-74.909-59.476l-5 16.243c27.488 8.425 50.767 26.909
  65.171 51.744a113.5 113.5 0 0 1 12.49 82.165 113.7 113.7 0 0 1-46.86 68.702 114.15 114.15 0
  0 1-81.183 18.546 114 114 0 0 1-72.147-41.516 113.55 113.55 0 0 1-24.577-79.404 113.62 113.62
  0 0 1 36.119-74.883A114.1 114.1 0 0 1 233.5 119.99z">

  </path>

  <path fill="#64ffda" d="M200.192 195.928v34.368c0 11.328-5.184 17.472-16.128 17.472-10.368
  0-15.744-6.144-15.744-16.896v-1.728h9.984v2.4c0 4.8 2.112 6.624 5.472 6.624 3.744 0 5.856-1.824
  5.856-8.256v-12.288c-1.824 3.84-5.088 5.952-9.792 5.952-7.776
  0-11.712-5.472-11.712-15.36v-12.288c0-10.752 5.664-16.896 16.032-16.896s16.032
  6.144 16.032 16.896m-16.032 18.048c3.36 0
  5.472-1.824 5.472-6.624v-12.096c0-4.8-2.112-6.528-5.472-6.528s-5.472 1.728-5.472
  6.528v12.096c0 4.8 2.112 6.624 5.472 6.624m32.782-18.72v36.288c0 4.8 2.112 6.624
  5.472 6.624s5.472-1.824 5.472-6.624v-36.288c0-4.8-2.112-6.624-5.472-6.624s-5.472
  1.824-5.472 6.624m-10.56 35.616v-34.944c0-10.752 5.664-16.896 16.032-16.896s16.032
  6.144 16.032 16.896v34.944c0 10.752-5.664 16.896-16.032
  16.896s-16.032-6.144-16.032-16.896m45.071-41.28v23.04c0 2.976 1.248 4.224 3.456
  4.224 2.112 0 3.456-1.248 3.456-4.224v-23.04c0-2.976-1.344-4.224-3.456-4.224-2.208
  0-3.456 1.248-3.456 4.224m-6.72 22.56v-22.08c0-6.912 3.552-10.752 10.176-10.752s10.176
  3.84 10.176 10.752v22.08c0 6.912-3.552 10.752-10.176 10.752s-10.176-3.84-10.176-10.752M254.909
  247l26.496-67.2h6.24L261.149 247zm29.856-32.832v23.04c0 2.976 1.248 4.224 3.456 4.224 2.112 0
  3.456-1.248 3.456-4.224v-23.04c0-2.976-1.344-4.224-3.456-4.224-2.208 0-3.456 1.248-3.456
  4.224m-6.72 22.56v-22.08c0-6.912 3.552-10.752 10.176-10.752s10.176 3.84 10.176
  10.752v22.08c0 6.912-3.552 10.752-10.176 10.752s-10.176-3.84-10.176-10.752M173.897
  268.4h1.332v11.448h7.056V281h-8.388zm10.329 3.132h1.278V281h-1.278zm.648-2.07a.9.9 0
  0 1-.666-.27.88.88 0 0 1-.27-.648q0-.36.27-.63t.666-.27.666.27q.27.252.27.612
  0 .396-.27.666a.9.9 0 0 1-.666.27m12.826 2.07v12.96h-1.278v-5.274a4 4 0 0 1-1.53
  1.404q-.918.468-2.07.468-1.35 0-2.43-.594a4.4 4.4 0
  0 1-1.674-1.71q-.612-1.098-.612-2.52 0-1.404.612-2.502a4.25
  4.25 0 0 1 1.692-1.692q1.08-.612 2.412-.612 1.188 0 2.124.504a3.9 3.9
  0 0 1 1.53 1.44v-1.872zm-4.77 8.424q.99 0 1.782-.45.81-.468
  1.26-1.314.468-.846.468-1.926t-.468-1.908a3.24 3.24 0 0
  0-1.26-1.314 3.44 3.44 0 0 0-1.782-.468q-1.008
  0-1.818.468-.792.468-1.26 1.314-.45.828-.45 1.908t.45 1.926a3.4 3.4
  0 0 0 1.26 1.314q.81.45 1.818.45m16.862-8.424V281h-1.224v-1.728a3.57 3.57 0
  0 1-1.386 1.35q-.882.468-2.016.468-1.854
  0-2.934-1.026-1.062-1.044-1.062-3.042v-5.49h1.278v5.364q0 1.494.738 2.268t2.106.774q1.494
  0 2.358-.9.864-.918.864-2.538v-4.968zm3.579 0h1.278V281h-1.278zm.648-2.07a.9.9 0 0
  1-.666-.27.88.88 0 0 1-.27-.648q0-.36.27-.63t.666-.27.666.27q.27.252.27.612 0 .396-.27.666a.9.9
  0 0 1-.666.27m12.826-1.818V281h-1.224v-1.872a3.9 3.9 0 0 1-1.53
  1.458q-.936.504-2.124.504-1.332 0-2.412-.612a4.37 4.37 0
  0 1-1.692-1.71q-.612-1.098-.612-2.502t.612-2.502a4.25 4.25 0 0
  1 1.692-1.692q1.08-.612 2.412-.612 1.152 0 2.07.486a3.85 3.85 0 0 1 1.53 1.386v-5.688zm-4.77 12.312q.99
  0 1.782-.45.81-.468 1.26-1.314.468-.846.468-1.926t-.468-1.926q-.45-.846-1.26-1.296a3.44 3.44 0
  0 0-1.782-.468q-1.008 0-1.818.468-.792.45-1.26 1.296-.45.846-.45 1.926t.45 1.926a3.4 3.4 0 0
  0 1.26 1.314q.81.45 1.818.45m8.329-8.424h1.278V281h-1.278zm.648-2.07a.9.9 0 0 1-.666-.27.88.88 0 0
  1-.27-.648q0-.36.27-.63t.666-.27.666.27q.27.252.27.612 0 .396-.27.666a.9.9 0 0 1-.666.27m9.172
  10.962q-.36.324-.9.504a3.7 3.7 0 0
  1-1.098.162q-1.332 0-2.052-.72t-.72-2.034v-5.724h-1.692v-1.08h1.692v-2.07h1.278v2.07h2.88v1.08h-2.88v5.652q0
  .846.414 1.296.432.432 1.224.432.396 0 .756-.126.378-.126.648-.36zm10.107-8.892-4.734
  10.602q-.576 1.332-1.332 1.89t-1.818.558q-.684 0-1.278-.216a2.8 2.8 0 0
  1-1.026-.648l.594-.954q.72.72 1.728.72.648 0 1.098-.36.468-.36.864-1.224l.414-.918-4.23-9.45h1.332l3.564
  8.046 3.564-8.046zm11.497-3.132q2.412 0 3.78 1.152t1.368 3.168-1.368 3.168q-1.368 1.134-3.78
  1.134h-3.384V281h-1.332v-12.6zm-.036 7.452q1.872 0 2.862-.81.99-.828.99-2.322
  0-1.53-.99-2.34-.99-.828-2.862-.828h-3.348v6.3zm11.611 5.238q-1.368
  0-2.466-.612a4.6 4.6 0 0 1-1.728-1.728q-.63-1.098-.63-2.484t.63-2.484a4.47 4.47 0 0
  1 1.728-1.71q1.098-.612 2.466-.612t2.466.612a4.34 4.34 0 0
  1 1.71 1.71q.63 1.098.63 2.484t-.63 2.484a4.47 4.47 0 0 1-1.71 1.728q-1.098.612-2.466.612m0-1.134q1.008
  0 1.8-.45.81-.468 1.26-1.314t.45-1.926-.45-1.926-1.26-1.296q-.792-.468-1.8-.468t-1.818.468q-.792.45-1.26
  1.296-.45.846-.45 1.926t.45 1.926a3.4 3.4 0 0 0 1.26 1.314q.81.45 1.818.45m11.285 1.134q-1.368
  0-2.466-.612a4.6 4.6 0 0 1-1.728-1.728q-.63-1.098-.63-2.484t.63-2.484a4.47 4.47 0 0 1
  1.728-1.71q1.098-.612 2.466-.612t2.466.612a4.34 4.34 0 0 1 1.71 1.71q.63 1.098.63 2.484t-.63
  2.484a4.47 4.47 0 0 1-1.71 1.728q-1.098.612-2.466.612m0-1.134q1.008 0 1.8-.45.81-.468
  1.26-1.314t.45-1.926-.45-1.926-1.26-1.296q-.792-.468-1.8-.468t-1.818.468q-.792.45-1.26
  1.296-.45.846-.45 1.926t.45 1.926a3.4 3.4 0 0 0 1.26 1.314q.81.45
  1.818.45m7.415-12.312h1.278V281h-1.278z">

</path>
</svg>
